<?xml version="1.0" standalone="no"?>
<!DOCTYPE svg PUBLIC "-//W3C//DTD SVG 20010904//EN"
		"http://www.w3.org/TR/2001/REC-SVG-20010904/DTD/svg10.dtd">
<svg version="1.0" xmlns="http://www.w3.org/2000/svg"
	 width="700.000000pt" height="700.000000pt" viewBox="0 0 700.000000 700.000000"
	 preserveAspectRatio="xMidYMid meet">
	<g transform="translate(0.000000,700.000000) scale(0.100000,-0.100000)"
	   fill="#000000" stroke="none">
		<path d="M3240 6994 c-563 -50 -1073 -212 -1540 -491 -890 -532 -1504 -1446
-1660 -2472 -45 -296 -51 -687 -15 -961 146 -1108 779 -2057 1740 -2610 406
-234 849 -379 1355 -442 140 -17 630 -17 770 0 236 30 475 81 681 148 1199
385 2107 1398 2358 2631 80 393 92 816 35 1213 -106 735 -460 1437 -989 1965
-551 550 -1250 894 -2035 1001 -110 15 -594 27 -700 18z m535 -145 c350 -30
695 -113 1010 -243 388 -161 832 -460 1100 -740 290 -303 475 -567 645 -919
324 -672 413 -1440 250 -2172 -117 -526 -354 -1006 -707 -1432 -115 -139 -365
-380 -511 -493 -488 -377 -1034 -603 -1657 -687 -183 -24 -639 -24 -815 1
-388 54 -706 147 -1026 301 -394 189 -709 418 -1014 739 -442 463 -760 1104
-864 1736 -35 215 -41 291 -40 565 0 351 24 549 104 850 362 1369 1550 2370
2960 2494 139 12 427 12 565 0z"/>
		<path d="M3498 6754 c-5 -4 -8 -20 -8 -36 0 -16 -6 -31 -15 -34 -8 -4 -15 -11
-15 -16 0 -6 7 -8 15 -4 13 4 15 -7 15 -69 0 -43 -4 -75 -10 -75 -13 0 -13
-37 0 -45 11 -7 8 -26 -11 -76 -6 -15 -30 -41 -53 -58 -77 -54 -97 -134 -49
-191 l26 -32 24 31 c31 39 74 47 138 26 34 -12 50 -14 53 -6 2 6 8 9 13 5 15
-9 41 65 34 97 -4 18 -27 46 -61 76 -70 59 -91 96 -73 130 10 18 10 26 1 35
-19 19 -16 174 3 182 8 3 15 10 15 17 0 6 -6 9 -14 6 -10 -4 -16 2 -18 20 -2
13 -6 21 -10 17z m75 -435 c58 -52 67 -70 56 -109 -6 -22 -7 -21 -8 11 -1 46
-18 67 -72 93 -42 20 -44 23 -46 66 -2 40 -1 42 7 16 5 -16 33 -50 63 -77z"/>
		<path d="M3460 6163 c-24 -9 -50 -35 -50 -50 0 -11 7 -9 26 6 44 35 144 24
144 -15 0 -9 6 -14 13 -11 6 2 12 12 12 23 0 35 -94 66 -145 47z"/>
		<path d="M3451 6089 c-35 -21 -37 -38 -3 -20 33 18 70 13 86 -11 25 -35 21
-56 -9 -50 -13 2 -33 1 -42 -3 -10 -5 -28 -7 -40 -6 -11 1 -24 -2 -27 -7 -8
-14 55 -24 70 -11 9 7 19 7 36 -2 13 -7 30 -12 40 -11 9 2 19 -1 22 -6 3 -6
-2 -9 -12 -8 -9 0 -16 -5 -14 -11 1 -7 -5 -13 -13 -13 -7 0 -18 -8 -24 -17 -9
-17 -11 -16 -30 1 -21 19 -22 19 -35 0 -12 -16 -17 -17 -28 -6 -11 11 -11 13
1 10 18 -4 27 30 12 45 -9 9 -13 6 -18 -12 -4 -17 -8 -19 -14 -9 -13 19 -12
-28 1 -51 7 -14 -3 -56 -40 -167 -28 -82 -62 -197 -76 -256 -22 -89 -30 -108
-45 -108 -21 0 -25 -14 -33 -108 -4 -40 -2 -61 4 -57 6 3 10 15 10 25 0 10 5
22 10 25 6 4 10 -9 10 -31 0 -51 19 -33 61 60 l33 74 26 -37 c40 -56 42 -60
23 -55 -12 3 -42 -16 -83 -50 -65 -56 -65 -56 -132 -56 l-68 0 20 -32 c11 -18
20 -36 20 -39 0 -3 -22 -16 -50 -29 -27 -13 -50 -26 -50 -29 0 -3 21 -19 45
-36 25 -16 45 -37 45 -45 0 -8 -9 -116 -20 -240 -22 -257 -23 -270 -12 -270 5
0 22 119 37 265 l29 265 -28 29 -29 30 34 20 c19 12 38 22 43 24 5 2 1 15 -9
30 l-17 27 42 0 c30 0 62 11 110 37 l68 37 91 -23 91 -24 76 23 75 22 39 -27
40 -27 -22 -31 c-12 -16 -46 -53 -77 -81 -30 -28 -83 -77 -117 -109 l-61 -57
5 100 c4 89 3 100 -12 100 -15 0 -17 -13 -15 -110 1 -106 1 -111 -29 -157 -17
-27 -36 -70 -43 -96 -13 -55 -6 -139 14 -171 14 -21 14 -21 -52 -18 -65 3 -68
2 -176 -59 -126 -70 -120 -67 -112 -76 4 -3 55 12 114 35 93 35 120 41 198 43
68 2 98 -1 122 -14 18 -9 39 -17 48 -17 15 0 15 1 1 16 -9 8 -16 28 -16 44 0
27 2 29 30 24 27 -6 30 -4 30 20 0 23 3 26 24 20 20 -5 24 -1 29 24 6 30 7 30
47 20 48 -13 50 -21 8 -39 -34 -14 -98 -66 -98 -79 0 -5 27 2 59 15 115 47
252 52 341 11 34 -15 30 -15 -91 -10 -141 7 -172 1 -256 -49 l-53 -31 0 -179
c0 -116 3 -176 10 -172 6 4 10 73 10 175 0 146 2 169 16 174 9 4 18 5 20 3 2
-2 7 -73 10 -158 3 -85 8 -161 11 -169 13 -34 21 41 22 192 1 86 4 159 9 161
4 3 21 8 39 11 45 10 61 -20 75 -138 6 -53 15 -96 19 -96 5 0 9 52 9 115 l0
115 53 0 c28 0 68 -5 88 -10 32 -9 37 -15 43 -48 12 -69 19 -219 12 -255 l-7
-37 -55 0 c-64 0 -99 -16 -141 -63 l-30 -34 -36 34 c-29 26 -45 33 -78 33 -77
0 -139 -59 -139 -131 0 -32 1 -31 26 19 48 97 133 112 175 31 11 -22 27 -39
36 -39 9 0 13 -3 10 -7 -4 -3 -60 -14 -126 -24 -101 -14 -124 -21 -161 -48
-24 -17 -45 -30 -46 -28 -10 10 52 140 75 160 l28 23 5 172 5 171 -27 26 c-25
24 -30 25 -158 25 -112 0 -147 -4 -228 -26 -52 -15 -93 -30 -92 -35 2 -4 53
-45 113 -91 92 -69 115 -92 138 -138 24 -46 28 -64 25 -112 -5 -67 -29 -100
-94 -129 l-41 -18 -10 -133 c-7 -82 -7 -134 -2 -136 25 -10 72 -59 90 -95 12
-23 25 -78 32 -133 l10 -93 81 -3 c45 -2 83 -1 87 2 3 3 3 123 1 267 l-4 263
-24 -6 c-18 -5 -24 -2 -24 11 0 9 4 14 9 10 6 -3 32 8 58 24 37 23 69 32 145
42 54 7 100 10 103 7 3 -3 11 -131 16 -284 6 -153 12 -281 15 -283 12 -13 16
28 25 245 5 130 11 246 15 257 5 16 12 18 44 13 54 -8 181 -53 196 -68 8 -9
13 -70 15 -197 l4 -183 -130 -40 c-71 -21 -166 -43 -210 -48 -44 -5 -114 -19
-155 -31 -58 -16 -122 -23 -279 -30 -113 -5 -206 -7 -208 -5 -7 6 24 73 36 81
7 4 27 -10 47 -32 32 -33 35 -35 29 -13 -9 33 -33 70 -45 70 -5 0 -2 23 6 50
8 28 12 55 9 60 -8 12 -85 13 -85 1 0 -5 7 -11 15 -15 8 -3 23 -22 32 -41 15
-31 15 -37 3 -46 -8 -5 -24 -6 -35 -2 -23 8 -323 9 -377 2 -21 -3 -49 -16 -62
-28 -21 -20 -23 -27 -14 -47 l11 -23 16 31 c30 58 86 54 126 -9 22 -35 35 -42
35 -17 0 9 16 32 35 51 32 32 37 34 82 27 26 -3 56 -11 66 -16 17 -9 57 -65
57 -80 0 -5 -84 -8 -187 -8 -181 0 -187 -1 -230 -25 -23 -14 -43 -30 -43 -35
0 -5 18 -51 40 -102 22 -51 39 -99 38 -106 -2 -7 -32 55 -67 138 -35 83 -60
154 -57 157 3 4 6 -1 6 -10 0 -10 5 -17 10 -17 6 0 10 30 10 70 0 71 14 114
44 139 11 9 16 31 16 68 0 58 11 88 40 113 10 8 21 34 25 57 l7 42 -61 30
c-33 17 -67 31 -76 31 -10 0 -15 10 -15 34 0 26 7 39 27 54 16 11 25 24 21 28
-10 9 -215 23 -353 23 -169 0 -237 -19 -165 -46 27 -10 30 -15 30 -57 0 -44
-1 -45 -37 -51 -102 -18 -127 -29 -148 -69 -15 -29 -17 -40 -7 -43 7 -3 22
-24 34 -46 20 -40 21 -52 15 -264 -3 -130 -1 -223 4 -223 5 0 9 2 9 4 0 25 33
293 40 331 17 83 6 79 227 90 l198 10 -57 28 c-57 28 -58 28 -89 10 -31 -18
-31 -18 -46 5 -18 25 -45 29 -63 7 -17 -20 -33 -19 -55 5 -24 26 -53 25 -83
-2 l-25 -23 7 30 c4 17 9 38 12 48 5 16 2 16 -47 -3 -28 -12 -54 -19 -56 -16
-3 2 3 17 13 33 10 15 18 29 18 30 1 0 50 8 110 17 85 13 145 15 268 10 88 -4
154 -10 147 -15 -9 -5 -6 -14 10 -34 15 -20 21 -42 21 -79 0 -65 -9 -96 -24
-90 -10 4 -15 -18 -19 -78 -6 -69 -3 -92 13 -135 11 -28 35 -116 55 -195 20
-79 38 -150 41 -160 7 -23 -94 -55 -221 -69 -95 -10 -103 -13 -157 -54 -41
-32 -93 -57 -199 -94 -78 -28 -143 -51 -144 -51 -5 0 8 106 14 113 4 4 45 14
92 23 122 21 129 23 129 34 0 5 -27 28 -59 51 l-59 42 21 43 21 44 118 0 c65
0 118 4 118 9 0 5 3 16 6 25 5 13 -9 16 -93 19 l-98 3 101 2 c99 2 114 7 114
38 0 10 -135 3 -216 -12 -49 -9 -114 -19 -144 -23 l-55 -6 -3 -42 c-2 -26 1
-43 7 -43 6 0 11 13 11 29 0 26 4 29 46 36 25 3 48 4 50 2 3 -3 -15 -8 -40
-11 l-45 -7 -7 -89 -6 -88 -44 -11 -44 -11 0 -98 0 -97 -163 -59 c-201 -73
-1017 -385 -1037 -397 -8 -5 -12 -9 -8 -9 18 0 1752 516 2693 802 844 256
1398 429 2035 633 614 197 979 324 870 301 -276 -57 -557 -121 -867 -196
l-242 -59 -30 29 c-17 18 -40 30 -55 30 l-26 0 0 108 c0 88 4 115 20 147 12
23 20 59 20 87 0 26 4 48 10 48 18 0 91 73 111 111 28 56 25 132 -7 197 -30
60 -119 155 -216 231 -74 58 -100 89 -138 165 -46 91 -83 88 -113 -10 -30 -96
-48 -125 -122 -185 -66 -55 -98 -70 -61 -30 16 17 15 19 -8 34 -28 19 -36 14
-36 -23 0 -15 -7 -33 -15 -40 -19 -16 -19 -34 0 -26 23 9 18 -2 -25 -54 -48
-57 -79 -123 -80 -166 0 -46 26 -123 50 -149 l22 -23 -33 -18 c-54 -27 -97
-63 -119 -99 l-20 -33 -30 30 c-26 25 -36 29 -63 24 l-33 -6 4 170 c4 156 3
172 -14 193 l-19 22 22 -19 c21 -18 23 -18 52 3 16 12 49 44 74 71 107 118 77
251 -91 414 -37 36 -85 78 -107 94 -65 46 -145 142 -176 209 -22 48 -35 64
-56 69 -32 8 -63 -23 -64 -65 0 -27 -17 -74 -19 -56 -1 6 -3 39 -4 75 -3 51
-25 127 -104 353 -93 269 -99 291 -86 315 18 35 18 52 -2 81 -11 16 -14 34
-10 60 5 33 3 39 -23 54 -39 23 -79 21 -120 -4z m139 -174 c0 -8 -4 -15 -10
-15 -5 0 -7 7 -4 15 4 8 8 15 10 15 2 0 4 -7 4 -15z m-6 -195 c92 -333 95
-357 26 -280 l-49 54 -22 -19 c-13 -11 -31 -29 -41 -40 -17 -19 -17 -10 -18
209 0 126 -2 227 -4 225 -2 -2 -14 -107 -25 -234 -12 -126 -24 -249 -27 -272
l-5 -42 -36 40 c-19 21 -39 39 -43 39 -4 0 -15 -21 -25 -46 -9 -25 -19 -43
-21 -41 -3 2 16 62 41 133 30 84 54 177 70 272 14 79 25 147 25 152 0 11 26
17 71 16 l37 -1 46 -165z m27 -426 c23 -30 40 -57 37 -60 -12 -12 -107 -15
-145 -5 l-43 12 43 63 c47 72 44 73 108 -10z m155 -45 c29 -59 26 -75 -6 -30
-12 17 -28 31 -35 31 -12 0 -12 5 -3 25 6 14 13 25 14 25 2 0 15 -23 30 -51z
m142 -104 c-9 -9 -88 -13 -82 -4 3 5 24 9 46 9 23 0 39 -2 36 -5z m-65 -42
c-7 -2 -19 -2 -25 0 -7 3 -2 5 12 5 14 0 19 -2 13 -5z m-13 -53 c0 -5 -15 -10
-32 -9 -31 1 -32 1 -8 9 35 11 40 11 40 0z m110 2 c0 -10 -76 -10 -86 1 -4 4
14 7 39 7 26 0 47 -4 47 -8z m45 -2 c3 -5 1 -10 -4 -10 -6 0 -11 5 -11 10 0 6
2 10 4 10 3 0 8 -4 11 -10z m-167 -45 c-2 -6 -14 -10 -28 -10 -14 -1 -31 -5
-39 -9 -9 -6 -12 -5 -9 5 3 8 18 17 34 20 36 8 46 6 42 -6z m203 -2 c13 -15
12 -15 -8 -4 -16 8 -29 9 -41 2 -10 -5 -24 -6 -31 -1 -8 4 -30 5 -51 3 -21 -3
-40 -1 -44 5 -4 6 24 10 78 11 67 1 86 -2 97 -16z m10 -34 c15 0 35 -9 44 -19
10 -11 13 -20 8 -20 -6 0 -16 7 -23 15 -11 14 -15 14 -36 0 -22 -14 -26 -14
-48 0 -19 13 -28 14 -50 4 -20 -9 -32 -9 -51 -1 -21 10 -30 9 -50 -4 -14 -9
-33 -13 -44 -9 -12 3 -31 -1 -45 -10 -14 -9 -30 -14 -36 -10 -6 4 -17 1 -25
-5 -22 -18 -18 4 3 24 20 17 62 25 170 31 35 2 65 5 67 7 2 1 23 2 47 0 23 -2
55 -3 69 -3z m-12 -68 c16 11 25 10 45 0 19 -11 29 -11 39 -3 11 9 19 6 38
-14 23 -25 23 -26 5 -39 -15 -12 -23 -11 -52 2 -29 14 -37 15 -59 3 -22 -12
-30 -11 -61 3 -32 16 -36 16 -60 1 -21 -15 -30 -15 -63 -4 -33 11 -42 10 -65
-5 -22 -15 -31 -16 -53 -6 -22 10 -29 9 -49 -10 -14 -13 -29 -19 -40 -15 -10
4 -24 0 -34 -9 -15 -13 -19 -14 -29 -1 -10 12 -5 19 24 42 30 23 40 26 55 16
14 -9 21 -8 31 4 7 8 20 12 31 8 12 -3 27 1 38 11 12 10 26 14 39 10 11 -3 30
-1 42 5 16 9 28 9 46 1 19 -9 29 -8 45 3 18 13 24 13 43 0 19 -13 27 -13 44
-3z m821 -57 c6 -14 10 -55 10 -91 0 -89 -22 -132 -111 -218 -78 -75 -115
-140 -125 -218 -6 -40 -3 -50 20 -79 15 -18 37 -46 50 -63 l24 -30 129 0 c113
0 134 -3 181 -24 33 -15 52 -30 52 -41 0 -27 -10 -30 -44 -13 -39 21 -130 21
-176 0 l-35 -15 70 -2 c97 -2 139 -17 143 -53 3 -28 3 -28 -22 -12 -32 22 -94
36 -123 29 -18 -5 -21 -10 -13 -24 6 -10 10 -37 10 -59 0 -46 -32 -91 -79
-111 -25 -10 -31 -19 -37 -57 -5 -37 -3 -47 13 -58 11 -8 26 -29 33 -47 7 -18
20 -39 28 -45 13 -11 9 -13 -26 -13 -35 0 -44 -4 -52 -22 -6 -16 -9 15 -9 97
-1 92 -5 126 -16 143 -14 19 -14 21 -1 16 38 -14 96 60 96 123 0 49 -27 85
-115 153 -31 24 -68 63 -82 87 -27 46 -56 68 -79 59 -21 -8 -18 70 6 122 30
65 67 108 141 162 81 59 125 126 135 207 10 83 -5 100 -25 27 -23 -81 -45
-109 -143 -184 -81 -61 -82 -61 -26 -11 87 79 124 136 143 219 18 77 37 93 55
46z m-804 -44 c23 13 30 12 64 -7 37 -22 38 -22 55 -3 21 24 36 18 59 -23 18
-31 18 -31 0 -15 -17 17 -19 17 -45 -8 l-27 -26 -30 33 -30 33 -34 -26 -35
-27 -29 30 c-15 16 -31 29 -35 29 -4 0 -22 -12 -39 -27 -25 -20 -36 -24 -49
-16 -9 5 -26 16 -38 24 -21 12 -25 11 -56 -19 l-34 -33 -27 22 -28 22 -29 -37
c-29 -34 -31 -35 -53 -21 -22 15 -24 14 -36 -14 -10 -26 -15 -29 -31 -20 -19
9 -19 11 2 50 16 32 25 40 40 35 10 -3 28 -9 39 -12 11 -4 20 -2 20 2 1 25 17
35 43 25 22 -9 29 -7 41 11 11 16 21 19 42 14 15 -4 40 -2 56 5 22 9 35 9 58
-1 25 -10 34 -10 52 2 20 14 27 14 55 0 28 -13 36 -14 59 -2z m-127 -97 l39
26 23 -25 c27 -29 39 -30 72 -4 33 26 39 25 60 -7 35 -58 34 -58 51 -44 8 7
20 9 27 5 8 -4 4 -11 -12 -20 -34 -19 -49 -17 -75 7 -22 21 -25 21 -48 5 -33
-21 -45 -20 -72 5 l-23 21 -35 -22 -36 -22 -36 22 -35 22 -24 -22 c-23 -22
-28 -22 -66 -11 -36 11 -42 10 -55 -6 -7 -10 -14 -21 -14 -26 0 -4 -11 -5 -24
-1 -18 4 -27 1 -35 -14 -7 -13 -18 -18 -34 -15 -19 4 -26 -1 -32 -19 -8 -23
-8 -22 -12 5 -6 36 3 61 20 54 6 -3 19 -8 28 -12 12 -5 20 2 28 26 9 28 13 30
27 18 14 -11 20 -9 44 21 29 35 29 35 58 18 29 -17 29 -17 57 12 l28 29 33
-26 34 -26 39 26z m1014 -93 c-2 -59 -8 -77 -72 -203 -46 -89 -71 -150 -71
-171 0 -30 -4 -34 -30 -38 -25 -4 -30 -1 -35 23 -17 77 25 200 100 295 57 71
75 113 75 174 l0 34 17 -24 c13 -18 17 -42 16 -90z m167 -165 c0 -121 -76
-219 -177 -227 l-52 -5 39 44 c77 88 126 205 118 284 l-3 39 37 -37 c36 -35
38 -41 38 -98z m97 -173 c-22 -46 -150 -110 -146 -73 0 3 21 20 47 36 34 22
54 44 72 82 l25 53 8 -36 c4 -23 3 -45 -6 -62z m-587 -74 c13 -23 38 -58 55
-77 49 -56 85 -113 85 -138 0 -37 -41 -59 -124 -66 -75 -5 -166 -37 -166 -56
0 -14 -3 -14 67 4 42 11 71 12 103 6 l45 -9 -62 -1 c-63 -1 -143 -25 -143 -43
0 -5 9 -6 23 -1 12 4 62 8 110 8 120 0 127 -9 127 -146 l0 -98 -92 2 c-51 1
-110 -2 -130 -6 l-38 -8 0 88 c0 74 -4 96 -25 137 -14 27 -31 57 -39 65 -54
60 -39 115 64 226 44 48 80 90 80 95 0 18 20 60 28 60 5 0 19 -19 32 -42z
m-533 -174 c13 -8 32 -32 43 -54 l20 -40 -130 0 c-84 0 -130 4 -130 10 0 22
31 70 52 81 55 30 101 31 145 3z m202 -35 c11 -12 25 -43 32 -70 7 -26 16 -46
21 -43 4 3 8 0 8 -6 0 -6 12 -16 26 -22 33 -15 74 -102 75 -159 0 -24 3 -62 7
-84 7 -35 5 -42 -16 -59 -14 -11 -31 -35 -39 -55 -15 -34 -29 -51 -45 -51 -5
0 -8 22 -8 49 0 41 4 51 20 56 36 12 70 63 70 108 0 46 -27 99 -60 117 l-21
11 21 -38 c26 -49 25 -78 -2 -105 l-23 -23 -3 77 c-2 56 2 86 13 109 9 17 15
32 13 34 -2 1 -18 10 -35 19 -26 13 -34 24 -39 57 -9 56 -34 84 -66 76 -37
-10 -45 -36 -10 -34 23 2 27 -2 30 -30 l3 -32 -41 16 c-37 15 -41 19 -35 42
15 60 67 79 104 40z m701 -239 c12 -8 10 -10 -11 -10 -26 0 -67 -36 -89 -78
-6 -13 -14 -21 -17 -19 -9 9 26 64 57 91 35 29 39 30 60 16z m-2297 -37 c-7
-2 -19 -2 -25 0 -7 3 -2 5 12 5 14 0 19 -2 13 -5z m44 -9 c-3 -3 -12 -4 -19
-1 -8 3 -5 6 6 6 11 1 17 -2 13 -5z m2328 -40 c18 -27 23 -24 -71 -49 -33 -9
-73 -15 -89 -13 l-28 3 29 34 c44 52 81 71 114 59 16 -5 36 -20 45 -34z m99 7
c3 -5 -1 -12 -10 -15 -27 -11 -37 -7 -24 9 14 17 26 19 34 6z m-636 -176 c-8
-8 -98 -33 -98 -28 0 14 38 32 69 33 19 0 32 -2 29 -5z"/>
		<path d="M4550 3685 c0 -51 3 -65 15 -65 17 0 18 15 9 84 -10 67 -24 56 -24
-19z"/>
		<path d="M4650 3685 c0 -51 3 -65 15 -65 16 0 20 42 9 99 -11 53 -24 34 -24
-34z"/>
		<path d="M4470 3681 c0 -71 19 -95 22 -27 1 25 2 54 2 63 1 9 -5 18 -11 21
-10 3 -13 -13 -13 -57z"/>
		<path d="M3490 5946 c0 -17 5 -26 16 -26 10 0 14 7 12 22 -5 32 -28 35 -28 4z"/>
		<path d="M3857 5674 c-4 -4 -7 -20 -7 -34 0 -15 -7 -33 -15 -40 -19 -16 -20
-34 -1 -27 20 8 26 -14 26 -89 0 -36 4 -64 10 -64 6 0 10 40 10 99 0 75 4 101
15 111 8 7 12 17 9 22 -3 5 -8 7 -12 4 -3 -3 -10 1 -16 10 -6 8 -15 12 -19 8z"/>
		<path d="M3856 5391 c-21 -23 -18 -49 6 -64 25 -16 50 9 46 47 -4 37 -27 45
-52 17z"/>
		<path d="M2457 5343 c-4 -3 -7 -16 -7 -28 0 -13 -7 -28 -15 -35 -8 -7 -15 -17
-15 -22 0 -6 7 -8 15 -4 13 4 15 -8 15 -74 0 -43 4 -81 9 -84 8 -6 21 86 21
154 0 21 7 43 15 50 8 7 15 16 15 21 0 5 -7 9 -15 9 -8 0 -15 5 -15 10 0 11
-13 13 -23 3z"/>
		<path d="M4790 5296 c0 -21 -6 -36 -15 -40 -21 -8 -19 -23 5 -29 18 -5 20 -14
20 -75 0 -39 5 -74 10 -77 6 -4 10 29 10 91 0 75 4 101 16 115 16 18 11 44 -7
34 -5 -4 -9 -1 -9 4 0 6 -7 11 -15 11 -10 0 -15 -10 -15 -34z"/>
		<path d="M3420 5156 c0 -2 24 -22 53 -44 l54 -40 91 19 c65 13 99 16 117 9 30
-11 32 -1 5 33 l-20 25 -91 -20 -90 -20 -56 21 c-57 22 -63 23 -63 17z"/>
		<path d="M3360 5130 c-23 -13 -55 -19 -94 -20 -73 0 -67 -8 18 -24 l65 -13 31
39 c35 43 31 46 -20 18z"/>
		<path d="M2442 5068 c-32 -32 0 -84 37 -61 24 15 21 67 -4 71 -11 1 -26 -3
-33 -10z"/>
		<path d="M4790 5040 c-16 -30 -3 -60 26 -60 27 0 48 37 38 65 -9 22 -51 19
-64 -5z"/>
		<path d="M3333 5043 c-16 -6 -19 -423 -4 -423 11 0 18 75 27 278 3 83 2 152
-3 151 -4 0 -14 -3 -20 -6z"/>
		<path d="M2422 4913 c-5 -10 -12 -34 -16 -54 -7 -39 -60 -100 -160 -183 -129
-108 -141 -260 -25 -318 19 -10 28 -18 20 -18 -8 0 -12 -2 -9 -5 3 -3 43 -1
89 6 56 8 104 9 144 3 58 -8 56 -9 -65 -14 -177 -8 -170 -1 -170 -165 0 -83 4
-135 10 -135 6 0 10 36 10 89 0 81 3 93 24 118 23 26 29 28 92 25 47 -1 79 -9
108 -25 36 -20 44 -32 82 -124 31 -76 39 -103 28 -103 -8 0 -14 5 -14 10 0 6
-13 4 -30 -5 -38 -20 -90 -19 -118 1 -41 28 -37 5 5 -37 l40 -41 49 35 49 35
34 -27 34 -28 23 26 c12 14 24 24 26 21 1 -3 10 -18 18 -34 8 -17 30 -39 49
-50 31 -18 38 -18 100 -5 36 7 100 13 141 13 103 -1 220 -37 197 -60 -3 -3
-29 2 -58 10 -95 29 -248 18 -294 -20 -19 -15 -19 -15 10 -10 135 25 237 16
289 -25 27 -22 35 -41 14 -36 -9 1 -13 -15 -13 -58 0 -43 4 -59 13 -58 7 2 12
-8 12 -23 0 -22 -3 -25 -22 -20 -84 23 -253 14 -315 -16 -38 -19 -65 -60 -61
-94 l3 -29 22 38 c20 33 27 37 62 37 41 0 71 -20 71 -46 0 -8 5 -14 10 -14 6
0 10 4 10 9 0 4 11 20 25 35 41 44 109 30 147 -33 l22 -36 9 43 c10 52 28 54
74 10 48 -47 40 5 -10 59 -18 20 -19 30 -13 109 4 49 14 97 22 108 17 24 19
63 3 68 -6 2 4 14 23 27 48 33 80 83 85 133 4 37 0 51 -29 93 -18 27 -62 73
-97 101 -35 28 -82 78 -103 110 -22 32 -47 67 -55 77 -24 26 -52 21 -64 -10
-6 -16 -16 -40 -23 -55 -6 -15 -54 -60 -106 -100 -109 -85 -155 -140 -165
-198 -6 -36 -10 -40 -36 -40 -17 0 -29 5 -29 13 0 56 23 246 31 264 6 11 9 27
7 35 -3 7 7 20 22 30 35 21 70 93 70 144 0 77 -27 130 -113 220 -47 50 -94
111 -112 147 -27 54 -36 62 -63 65 -22 2 -33 -2 -40 -15z m58 -15 c5 -13 11
-35 15 -51 3 -15 20 -44 38 -65 56 -63 63 -79 18 -37 -24 22 -54 63 -67 90
-22 47 -23 48 -23 19 -1 -44 45 -130 87 -162 19 -15 53 -49 74 -75 30 -39 38
-57 38 -91 0 -23 -6 -50 -14 -61 -12 -16 -14 -14 -18 28 -5 45 -20 70 -128
211 -33 43 -50 92 -51 151 0 32 -2 36 -9 20 -9 -20 -9 -20 -9 1 -1 20 16 44
31 44 5 0 13 -10 18 -22z m-3 -246 c60 -90 93 -204 69 -237 -16 -22 -32 -14
-41 22 -3 14 -26 70 -51 123 -37 83 -44 107 -44 161 l0 64 -35 -49 c-30 -42
-35 -58 -35 -105 0 -63 30 -138 80 -202 l31 -38 -33 -5 c-80 -12 -110 -15
-105 -9 4 3 -11 17 -31 30 -20 14 -41 32 -45 39 -15 26 -26 15 -17 -16 5 -17
5 -28 1 -25 -16 9 -20 67 -9 118 l11 52 9 -38 c18 -83 68 -137 127 -137 39 0
39 5 0 38 -44 36 -69 96 -69 163 0 54 2 58 60 124 33 38 64 80 68 94 5 20 8
10 12 -40 5 -55 13 -76 47 -127z m554 -249 c13 -16 12 -17 -3 -4 -10 7 -18 15
-18 17 0 8 8 3 21 -13z m-741 -38 c0 -11 -29 -11 -33 -1 -4 10 1 12 14 9 10
-3 19 -7 19 -8z m697 -17 c-3 -8 -6 -5 -6 6 -1 11 2 17 5 13 3 -3 4 -12 1 -19z
m-8 -150 c-34 -83 -42 -115 -42 -165 -1 -57 -3 -62 -24 -68 -34 -8 -40 -1 -53
60 -15 73 -3 109 61 177 54 57 88 113 91 150 1 13 3 6 5 -14 3 -28 -7 -65 -38
-140z m-9 111 c-7 -11 -29 -36 -50 -56 -139 -128 -140 -128 -140 -169 0 -40
29 -116 49 -128 16 -10 13 -26 -5 -26 -9 0 -31 15 -50 34 -28 28 -34 41 -34
78 0 56 23 93 96 154 33 27 77 68 99 91 46 48 50 50 35 22z m171 -66 c68 -83
79 -103 79 -143 0 -45 -15 -67 -68 -101 -55 -35 -82 -39 -31 -5 46 32 69 67
69 108 0 33 -7 46 -66 129 -27 39 -48 79 -41 79 2 0 28 -30 58 -67z m-41 -49
c16 -52 18 -75 11 -101 -15 -53 -59 -123 -75 -117 -10 4 -9 14 8 47 15 31 21
67 24 139 3 54 6 98 8 98 2 0 12 -30 24 -66z"/>
		<path d="M3008 4844 c-5 -4 -8 -17 -8 -29 0 -12 -9 -30 -20 -40 -11 -10 -20
-22 -20 -27 0 -5 9 -6 20 -3 19 6 20 2 20 -74 0 -47 4 -81 10 -81 6 0 10 38
10 94 0 71 4 97 15 106 19 16 20 44 1 37 -9 -4 -16 1 -18 9 -2 9 -6 12 -10 8z"/>
		<path d="M2998 4568 c-34 -27 -25 -78 13 -78 25 0 47 45 33 68 -14 22 -27 25
-46 10z"/>
		<path d="M3770 4195 c0 -60 3 -75 15 -75 12 0 15 13 15 59 0 63 -6 91 -21 91
-5 0 -9 -34 -9 -75z"/>
		<path d="M3950 4185 c0 -78 2 -85 20 -85 18 0 20 7 20 85 0 78 -2 85 -20 85
-18 0 -20 -7 -20 -85z"/>
		<path d="M2324 4166 c-7 -41 2 -106 16 -106 14 0 22 40 18 90 -4 54 -24 64
-34 16z"/>
		<path d="M2454 4174 c-7 -28 0 -111 10 -122 12 -12 26 22 26 63 0 76 -23 113
-36 59z"/>
		<path d="M2350 4019 c-19 -14 -34 -18 -62 -13 -44 7 -45 3 -17 -43 l22 -35 45
45 c47 47 56 81 12 46z"/>
		<path d="M2146 3960 c-21 -59 -15 -77 10 -28 22 45 21 44 43 17 l19 -24 11 28
c19 48 15 57 -27 57 -37 0 -39 -2 -56 -50z"/>
		<path d="M3600 3846 c-22 -11 -25 -18 -23 -62 1 -27 5 -152 9 -277 4 -163 9
-227 18 -224 8 2 13 90 18 288 4 156 6 284 5 286 -2 1 -14 -4 -27 -11z"/>
		<path d="M3025 3777 c-8 -53 -3 -102 10 -102 6 0 11 33 13 73 3 79 -13 99 -23
29z"/>
		<path d="M2884 3798 c-9 -14 -9 -106 0 -115 11 -11 16 3 22 65 5 42 3 62 -4
62 -6 0 -14 -5 -18 -12z"/>
		<path d="M2791 3466 c-9 -10 -9 -25 1 -60 12 -44 28 -62 28 -32 0 20 49 76 66
76 8 0 14 7 14 15 0 20 -93 21 -109 1z"/>
		<path d="M2961 3471 c-10 -7 -9 -11 6 -22 11 -8 28 -27 38 -43 18 -27 19 -27
27 -7 4 11 21 29 39 40 30 18 30 20 11 30 -24 13 -101 14 -121 2z"/>
		<path d="M5372 3400 c-118 -38 -216 -71 -219 -73 -6 -6 36 -989 42 -995 2 -3
43 7 90 22 l86 27 -7 269 -7 268 137 43 136 42 0 66 c0 102 2 102 -149 54
l-131 -40 -6 31 c-3 18 -4 49 -2 71 3 43 -16 33 186 96 l102 32 0 63 c0 74 -6
94 -29 93 -9 -1 -112 -32 -229 -69z"/>
		<path d="M2734 3440 c-25 -10 -49 -70 -39 -99 3 -11 1 -22 -5 -26 -13 -8 -13
-125 0 -125 6 0 10 19 10 41 0 80 22 169 47 189 36 28 30 38 -13 20z"/>
		<path d="M2556 3299 c-80 -192 -163 -409 -158 -414 4 -3 39 58 79 137 39 79
72 136 72 128 0 -8 -4 -55 -9 -104 -9 -86 -5 -146 10 -146 3 0 14 93 23 207
17 212 13 263 -17 192z"/>
		<path d="M4760 3208 c-85 -27 -219 -70 -297 -95 l-143 -45 0 -79 c0 -58 3 -79
13 -79 7 0 57 14 111 31 54 17 99 29 101 27 2 -2 11 -140 20 -308 9 -168 18
-310 20 -317 3 -7 31 -3 91 16 l88 28 -3 64 c-1 35 -9 172 -16 304 -8 132 -15
248 -15 257 0 13 26 25 108 51 l107 34 3 49 c4 63 -5 114 -21 113 -7 0 -82
-23 -167 -51z"/>
		<path d="M3940 2960 c-74 -16 -168 -68 -224 -125 -197 -201 -189 -585 14 -699
103 -58 231 -36 386 65 l66 43 -7 85 c-4 47 -9 88 -11 90 -2 2 -27 -18 -56
-44 -66 -59 -139 -95 -197 -95 -37 0 -49 6 -81 38 -97 97 -90 313 13 420 55
58 100 75 181 69 39 -3 82 -8 95 -12 l24 -8 -7 84 c-4 46 -10 86 -12 89 -9 9
-140 9 -184 0z"/>
		<path d="M2536 2572 l-109 -37 -62 -223 c-34 -122 -64 -224 -66 -226 -2 -3
-42 76 -89 175 -98 206 -73 190 -223 139 l-82 -27 2 -59 c1 -32 10 -273 19
-534 9 -261 18 -477 20 -479 2 -2 41 7 86 21 l83 26 -3 113 c-2 63 -7 224 -12
359 -6 135 -9 272 -9 305 l1 60 84 -175 c47 -96 87 -176 89 -178 2 -2 26 2 53
9 l50 12 63 228 c35 125 64 227 65 226 1 -1 10 -126 19 -277 9 -151 18 -276
19 -277 1 -1 39 10 84 24 l82 27 0 46 c0 25 -9 194 -20 375 -11 182 -20 342
-20 358 0 15 -3 27 -7 26 -5 0 -57 -17 -117 -37z"/>
		<path d="M3062 2428 c-8 -51 -18 -87 -27 -94 -8 -6 -44 -24 -80 -40 -35 -16
-65 -31 -65 -34 0 -4 35 -23 79 -44 l78 -39 12 -80 c6 -44 13 -83 16 -86 3 -3
34 23 68 56 l62 62 79 -15 c43 -8 80 -13 83 -11 2 3 -13 39 -34 81 l-37 76 38
71 c21 38 35 73 32 76 -3 4 -42 1 -86 -6 l-80 -12 -56 61 c-31 33 -60 60 -64
60 -4 0 -12 -37 -18 -82z"/>
		<path d="M6320 2458 c-1193 -255 -2376 -595 -3645 -1046 -381 -135 -1231 -460
-1207 -461 33 -2 2156 634 3207 960 795 247 1670 532 1690 550 5 5 7 9 5 8 -3
-1 -25 -5 -50 -11z"/>
		<path d="M4584 1651 c-41 -25 -47 -36 -34 -61 14 -26 40 -26 40 0 0 22 34 44
56 36 26 -10 14 -34 -30 -60 -25 -14 -48 -35 -51 -47 -9 -26 20 -69 46 -69 26
0 79 27 79 41 0 6 6 6 18 0 12 -7 26 -6 43 2 27 14 33 43 7 41 -12 -1 -23 17
-40 65 -23 66 -23 66 -63 69 -26 2 -51 -4 -71 -17z m96 -109 c0 -25 -19 -42
-47 -42 -29 0 -29 13 -1 40 27 25 48 26 48 2z"/>
		<path d="M4368 1588 c-56 -19 -79 -48 -40 -48 27 0 58 -101 40 -129 -7 -11 -9
-23 -5 -27 8 -9 124 23 155 42 29 19 31 77 2 97 -12 9 -18 20 -14 30 3 8 1 25
-6 36 -14 27 -55 26 -132 -1z m90 -41 c3 -17 -35 -39 -50 -30 -15 8 -8 42 10
46 26 7 37 2 40 -16z m27 -67 c9 -15 -14 -40 -35 -40 -19 0 -34 25 -24 41 7
12 51 11 59 -1z"/>
		<path d="M4230 1546 c-35 -13 -54 -46 -27 -46 18 0 12 -33 -9 -51 -11 -9 -15
-7 -20 7 -19 62 -21 63 -58 52 -39 -12 -48 -37 -16 -45 26 -7 61 -110 41 -122
-9 -6 -10 -14 -5 -23 8 -12 16 -12 57 -1 49 15 64 40 28 50 -19 5 -36 31 -27
41 3 2 26 -10 52 -27 53 -34 57 -35 85 -21 26 15 24 29 -7 40 -15 6 -39 20
-55 31 -29 20 -29 21 -13 52 9 18 21 35 27 38 11 8 2 39 -10 38 -4 0 -24 -6
-43 -13z"/>
		<path d="M3973 1465 c-45 -19 -67 -56 -58 -97 19 -85 58 -116 124 -98 45 12
80 45 64 61 -8 8 -20 6 -41 -5 -17 -9 -38 -16 -46 -16 -18 0 -41 33 -50 72 -5
22 -1 31 20 45 25 16 27 16 44 -7 20 -26 40 -20 40 14 0 45 -37 57 -97 31z"/>
		<path d="M3575 1426 c-44 -14 -42 -9 -53 -129 l-7 -79 -47 65 c-66 90 -66 90
-121 71 -47 -16 -64 -44 -28 -44 14 0 24 -19 46 -95 21 -70 25 -98 17 -107 -6
-8 -7 -19 -3 -27 7 -11 16 -11 52 1 50 17 60 34 28 46 -18 7 -28 26 -45 83
-13 40 -22 75 -20 76 1 1 29 -33 61 -77 32 -44 64 -80 70 -80 24 0 35 27 36
90 1 36 4 79 8 95 6 27 9 22 30 -48 18 -63 20 -81 10 -93 -21 -25 2 -35 51
-20 47 14 69 46 31 46 -16 0 -25 16 -49 93 -23 73 -26 95 -17 107 12 15 10 41
-3 39 -4 -1 -25 -7 -47 -13z"/>
		<path d="M3743 1390 c-39 -23 -50 -58 -34 -111 17 -55 43 -79 86 -79 42 0 90
22 99 45 19 50 -5 134 -43 155 -30 16 -73 12 -108 -10z m92 -51 c20 -37 16
-78 -7 -93 -26 -16 -50 3 -68 53 -14 40 -14 43 4 57 31 22 54 17 71 -17z"/>
		<path d="M4521 1271 c-51 -15 -81 -41 -48 -41 16 0 42 -83 27 -88 -5 -2 -7 -9
-4 -16 4 -11 14 -11 45 -4 41 11 52 32 20 41 -23 6 -39 64 -21 80 8 9 15 7 26
-7 20 -28 38 -8 25 27 -6 15 -12 27 -13 26 -2 -1 -27 -9 -57 -18z"/>
		<path d="M4280 1259 c-32 -13 -40 -26 -40 -72 0 -101 76 -161 140 -109 53 43
6 194 -60 191 -8 0 -26 -5 -40 -10z m48 -28 c21 -13 43 -100 31 -122 -17 -32
-51 -21 -67 21 -21 56 -22 78 -6 94 18 18 24 19 42 7z"/>
		<path d="M4091 1205 c-23 -11 -31 -20 -27 -31 3 -9 6 -20 6 -25 0 -5 7 -9 15
-9 8 0 15 9 15 19 0 19 18 31 46 31 22 0 17 -45 -11 -100 -24 -48 -33 -90 -17
-90 22 1 127 39 130 48 6 19 -16 22 -56 8 l-40 -15 24 52 c50 108 14 155 -85
112z"/>
		<path d="M4640 1186 c-10 -13 -9 -17 4 -22 22 -8 49 3 44 19 -7 18 -33 20 -48
3z"/>
		<path d="M3942 1160 c-36 -15 -48 -53 -33 -108 23 -86 78 -116 135 -71 29 23
33 55 15 110 -23 68 -61 91 -117 69z m64 -46 c24 -36 24 -103 1 -118 -24 -15
-53 19 -62 74 -11 66 29 94 61 44z"/>
		<path d="M3764 1110 c-29 -11 -37 -26 -29 -50 9 -27 24 -25 35 5 11 28 47 34
56 10 3 -8 -9 -46 -27 -85 -19 -42 -29 -74 -23 -80 5 -5 35 -1 72 8 48 13 62
21 62 35 0 20 0 20 -67 1 l-23 -6 26 57 c35 75 26 109 -26 112 -19 1 -45 -2
-56 -7z"/>
	</g>
</svg>
