<svg id="Layer_1" enable-background="new 0 0 512 512" height="512" viewBox="0 0 512 512" width="512" xmlns="http://www.w3.org/2000/svg"><g><path d="m456.32 195.19v64.62c0 104.86-80.83 191.18-183.39 199.81v17.89c0 15.9-16.97 26.99-16.97 26.99s-16.96-11.09-16.96-26.99v-17.9c-102.53-8.66-183.32-94.96-183.32-199.8v-64.62l60 64.62h-25c0 85.51 65.12 156.07 148.32 164.62v-324.74l16.96.01 16.97.02v324.71c83.23-8.51 148.39-79.09 148.39-164.62h-25z" fill="#ffff4d"/><path d="m456.32 195.19v64.62c0 104.86-80.83 191.18-183.39 199.81v17.89c0 15.9-16.97 26.99-16.97 26.99v-404.8l16.97.02v324.71c83.23-8.51 148.39-79.09 148.39-164.62h-25z" fill="#ffe150"/><g fill="#ffc552"><ellipse cx="195.212" cy="149.877" rx="16.964" ry="16.981"/><ellipse cx="316.789" cy="149.877" rx="16.964" ry="16.981"/></g><path d="m255.96 7.54c-2.73 0-5.4.23-8 .67-22.46 3.81-39.57 23.38-39.57 46.95s17.11 43.15 39.57 46.96c2.6.44 5.27.67 8 .67 26.28 0 47.58-21.33 47.58-47.63s-21.3-47.62-47.58-47.62zm-16.96 47.62c0-9.38 7.6-16.98 16.96-16.98 9.37 0 16.97 7.6 16.97 16.98s-7.6 16.98-16.97 16.98c-9.36 0-16.96-7.6-16.96-16.98z" fill="#ffe150"/><path d="m303.54 55.16c0 26.3-21.3 47.63-47.58 47.63-2.73 0-5.4-.23-8-.67 22.47-3.81 39.58-23.39 39.58-46.96s-17.11-43.14-39.58-46.95c2.6-.44 5.27-.67 8-.67 26.28 0 47.58 21.32 47.58 47.62z" fill="#ffc552"/></g><g><path d="m231.501 55.161c0 13.499 10.975 24.481 24.464 24.481s24.464-10.982 24.464-24.481-10.975-24.48-24.464-24.48-24.464 10.981-24.464 24.48zm33.928 0c0 5.229-4.246 9.481-9.464 9.481s-9.464-4.253-9.464-9.481 4.246-9.48 9.464-9.48 9.464 4.253 9.464 9.48z"/><path d="m459.059 188.206c-2.871-1.126-6.139-.382-8.237 1.878l-60 64.623c-2.03 2.187-2.571 5.367-1.378 8.102s3.892 4.502 6.875 4.502h17.323c-1.73 36.581-16.083 71.364-40.857 98.651-24.395 26.869-56.936 44.407-92.354 49.944v-258.529h13.069c3.172 9.842 12.413 16.981 23.29 16.981 13.489 0 24.463-10.982 24.463-24.481s-10.974-24.48-24.463-24.48c-10.876 0-20.117 7.139-23.29 16.98h-13.071v-37.773c6.352-3.144 12.111-7.517 16.904-12.952 2.74-3.106 2.442-7.847-.665-10.586-3.106-2.739-7.846-2.442-10.585.664-7.619 8.638-18.583 13.593-30.083 13.593-22.119 0-40.113-18.017-40.113-40.162 0-22.144 17.994-40.161 40.113-40.161s40.114 18.017 40.114 40.161c0 4.143 3.358 7.5 7.5 7.5s7.5-3.357 7.5-7.5c0-30.416-24.724-55.161-55.114-55.161s-55.113 24.745-55.113 55.161c0 21.613 12.484 40.364 30.614 49.407v37.809h-13c-3.172-9.841-12.413-16.98-23.29-16.98-13.489 0-24.463 10.981-24.463 24.48s10.974 24.481 24.463 24.481c10.876 0 20.117-7.14 23.29-16.981h13v200.947c0 4.143 3.358 7.5 7.5 7.5s7.5-3.357 7.5-7.5v-200.947h18.928v267.058c0 2.122.899 4.145 2.474 5.566 1.575 1.423 3.681 2.113 5.79 1.895 42.29-4.325 81.425-24.16 110.197-55.851 28.973-31.912 44.929-73.191 44.929-116.234 0-4.143-3.358-7.5-7.5-7.5h-7.802l35.302-38.022v45.522c0 48.629-18.199 95.117-51.243 130.903-32.858 35.582-77.348 57.4-125.275 61.434-3.885.327-6.871 3.575-6.871 7.474v17.888c0 7.379-5.469 13.738-9.463 17.398-3.999-3.664-9.465-10.021-9.465-17.398v-17.895c0-3.897-2.985-7.146-6.869-7.474-47.912-4.049-92.386-25.872-125.229-61.45-33.031-35.782-51.222-82.263-51.222-130.88v-45.522l35.302 38.022h-7.802c-4.142 0-7.5 3.357-7.5 7.5 0 43.03 15.948 84.3 44.905 116.208 28.756 31.686 67.874 51.527 110.147 55.869 2.107.218 4.215-.472 5.791-1.894s2.475-3.445 2.475-5.567v-30.909c0-4.143-3.358-7.5-7.5-7.5s-7.5 3.357-7.5 7.5v22.377c-35.402-5.551-67.926-23.094-92.306-49.957-24.761-27.283-39.107-62.057-40.836-98.627h17.323c2.983 0 5.682-1.768 6.875-4.502s.651-5.915-1.378-8.102l-60-64.623c-2.099-2.26-5.366-3.005-8.237-1.878-2.871 1.128-4.759 3.897-4.759 6.981v64.623c0 52.398 19.604 102.493 55.2 141.054 33.817 36.634 79.094 59.736 128.119 65.527v11.117c0 19.734 19.529 32.726 20.36 33.27 1.247.814 2.675 1.222 4.104 1.222s2.857-.407 4.104-1.222c.831-.544 20.36-13.535 20.36-33.27v-11.107c49.041-5.776 94.334-28.874 128.166-65.512 35.611-38.564 55.223-88.668 55.223-141.079v-64.623c0-3.083-1.888-5.853-4.759-6.981zm-142.27-47.81c5.218 0 9.463 4.253 9.463 9.48 0 5.229-4.245 9.481-9.463 9.481s-9.464-4.253-9.464-9.481c0-5.227 4.246-9.48 9.464-9.48zm-121.578 18.962c-5.218 0-9.463-4.253-9.463-9.481s4.245-9.48 9.463-9.48 9.464 4.253 9.464 9.48c0 5.228-4.245 9.481-9.464 9.481zm51.29-16.981v-32.874c3.087.539 6.261.82 9.499.82 3.183 0 6.337-.276 9.429-.814v32.868z"/></g></svg>