<svg xmlns="http://www.w3.org/2000/svg" viewBox="0 0 692.55 151.95" fill="#fff">
	<path d="M295.68,113.31l-.06-.06a4,4,0,0,0-5.62,0,4,4,0,1,0,5.68,0Z"/>
	<path d="M295.68,89.32l-.06-.06a4,4,0,0,0-5.62,0,4,4,0,1,0,5.68,0Z"/>
	<path d="M383.66,129.31l-.06-.07a4,4,0,0,0-5.62,0,4,4,0,1,0,5.68,0Z"/>
	<path d="M383.65,105.3l-.06-.06a4,4,0,0,0-5.62,0,4,4,0,1,0,5.68,0Z"/>
	<path d="M383.65,81.31l-.06-.06a4,4,0,0,0-5.62,0,4,4,0,1,0,5.68,0Z"/>
	<path d="M16,28a4,4,0,0,0-4-4,4,4,0,0,1-4-4,4,4,0,0,0-8,0A12,12,0,0,0,12,32,4,4,0,0,0,16,28Z"/>
	<path d="M9.17,73.14A4,4,0,0,1,12,72a4,4,0,0,0,0-8A12,12,0,0,0,0,76a4,4,0,0,0,4,4,4,4,0,0,0,4-4A4,4,0,0,1,9.17,73.14Z"/>
	<path d="M8,76V20a4,4,0,0,0-8,0V76a4,4,0,0,0,4,4A4,4,0,0,0,8,76Z"/>
	<path d="M80,36.49A4,4,0,0,0,76.48,32l-64-8a4,4,0,0,0-3.32,6.79A3.93,3.93,0,0,0,11.5,32l64,8A4,4,0,0,0,80,36.49Z"/>
	<path d="M80,59.48A4,4,0,0,0,75.49,56l-64,8a4,4,0,1,0,1,7.93l64-8A4,4,0,0,0,80,59.48Z"/>
	<path d="M88,60V28a4,4,0,0,0-8,0V60a4,4,0,1,0,8,0Z"/>
	<path d="M152,60V28a4,4,0,0,0-8,0V60a4,4,0,1,0,8,0Z"/>
	<path d="M152,36a4,4,0,0,0-4-4H84a4,4,0,1,0,0,8h64A4,4,0,0,0,152,36Z"/>
	<path d="M152,60a4,4,0,0,0-4-4H84a4,4,0,0,0-4,4,4,4,0,0,0,4,4h64a4,4,0,0,0,4-4Z"/>
	<path d="M176,36a4,4,0,0,0-4-4H148a4,4,0,0,0,0,8h24a4,4,0,0,0,4-4Z"/>
	<path d="M268.68,28a4,4,0,0,0-4-4h-48a4,4,0,1,0,0,8h48a4,4,0,0,0,4-4Z"/>
	<path d="M220.7,28a4,4,0,0,0-4-4c-15.79,0-26.83,3.31-34.89,5.72C177.61,31,174.29,32,172,32a4,4,0,1,0,0,8c3.51,0,7.33-1.14,12.16-2.59,7.58-2.28,18-5.4,32.59-5.4A4,4,0,0,0,220.7,28Z"/>
	<path d="M176,60a4,4,0,0,0-4-4H148a4,4,0,1,0,0,8h24a4,4,0,0,0,4-4Z"/>
	<path d="M268.68,68a4,4,0,0,0-4-4h-48a4,4,0,1,0,0,8h48a4,4,0,0,0,4-4Z"/>
	<path d="M220.7,68a4,4,0,0,0-4-4c-14.62,0-25-3.12-32.58-5.4C179.28,57.13,175.46,56,172,56a4,4,0,1,0,0,8c2.34,0,5.66,1,9.86,2.27,8.06,2.42,19.1,5.74,34.89,5.74a4,4,0,0,0,4-4Z"/>
	<path d="M268.68,68V20a4,4,0,1,0-8,0V68a4,4,0,0,0,4,4,4,4,0,0,0,4-4Z"/>
	<path d="M348.66,28a4,4,0,0,0-4-4h-72a4,4,0,1,0,0,8h72a4,4,0,0,0,4-4Z"/>
	<path d="M348.67,68a4,4,0,0,0-4-4h-72a4,4,0,1,0,0,8h72A4,4,0,0,0,348.67,68Z"/>
	<path d="M284.68,84a12,12,0,0,0-12-12,4,4,0,0,0,0,8,4,4,0,0,1,4,4,4,4,0,0,0,8,0Z"/>
	<path d="M312.69,80a4,4,0,0,0,0-8,12,12,0,0,0-12,12,4,4,0,0,0,8,0A4,4,0,0,1,312.69,80Z"/>
	<path d="M284.68,132V84a4,4,0,1,0-8,0v48a4,4,0,0,0,4,4A4,4,0,0,0,284.68,132Z"/>
	<path d="M308.69,132a4,4,0,0,0-4-4h-24a4,4,0,0,0-4,4,4,4,0,0,0,4,4h24A4,4,0,0,0,308.69,132Z"/>
	<path d="M308.69,132V84a4,4,0,1,0-8,0v48a4,4,0,1,0,8,0Z"/>
	<path d="M372.65,84a12.25,12.25,0,0,0-12-12,4,4,0,0,0,0,8,4.08,4.08,0,0,1,4,4,4,4,0,1,0,8,0Z"/>
	<path d="M400.66,80a4,4,0,0,0,0-8,12,12,0,0,0-12,12,4,4,0,0,0,8,0A4,4,0,0,1,400.66,80Z"/>
	<path d="M372.65,148V84a4,4,0,0,0-8,0v64a4,4,0,0,0,8,0Z"/>
	<path d="M396.66,148a4,4,0,0,0-4-4h-24a4,4,0,1,0,0,8h24a4,4,0,0,0,4-4Z"/>
	<path d="M396.66,148V84a4,4,0,1,0-8,0v64a4,4,0,0,0,8,0Z"/>
	<path d="M340.66,12a4,4,0,0,0-4-4h-40a4,4,0,0,0-4,4,4,4,0,0,0,4,4h40A4,4,0,0,0,340.66,12Z"/>
	<path d="M340.65,20V12a4,4,0,0,0-8,0v8a4,4,0,0,0,4,4,4,4,0,0,0,4-4Z"/>
	<path d="M300.67,20V12a4,4,0,1,0-8,0v8a4,4,0,1,0,8,0Z"/>
	<path d="M356.66,36a12.28,12.28,0,0,0-12-12,4,4,0,0,0,0,8,4.09,4.09,0,0,1,4,4,4,4,0,0,0,8,0Z"/>
	<path d="M356.66,60a4,4,0,1,0-8,0,4,4,0,0,1-4,4,4,4,0,0,0-4,4,4,4,0,0,0,4,4,12,12,0,0,0,12-12Z"/>
	<path d="M356.66,60V36a4,4,0,0,0-8,0V60a4,4,0,0,0,8,0Z"/>
	<path d="M484.62,36a4,4,0,0,0-4-4h-120a4,4,0,0,0,0,8h120A4,4,0,0,0,484.62,36Z"/>
	<path d="M484.62,60a4,4,0,0,0-4-4h-120a4,4,0,0,0,0,8h120a4,4,0,0,0,4-4Z"/>
	<path d="M420.64,76a4,4,0,0,0-4-4h-16a4,4,0,0,0,0,8h16A4,4,0,0,0,420.64,76Z"/>
	<path d="M428.64,68a4,4,0,0,0-8,0,4,4,0,0,1-4,4,4,4,0,1,0,0,8,12,12,0,0,0,12-12Z"/>
	<path d="M428.63,92V84a4,4,0,1,0-8,0v8a4,4,0,0,0,1.17,2.83A4,4,0,0,0,424.64,96,4,4,0,0,0,428.63,92Z"/>
	<path d="M428.63,92a4,4,0,1,0-8,0,4,4,0,0,1-4,4,4,4,0,0,0-4,4,4,4,0,0,0,4,4,12,12,0,0,0,12-12Z"/>
	<path d="M420.63,100a4,4,0,0,0-4-4h-16a4,4,0,0,0-4,4,3.94,3.94,0,0,0,1.17,2.83,4,4,0,0,0,2.82,1.17h16A4,4,0,0,0,420.63,100Z"/>
	<path d="M412.64,92a4,4,0,0,0-4-4,4,4,0,0,1-4-4,4,4,0,0,0-8,0,12,12,0,0,0,12,12A4,4,0,0,0,412.64,92Z"/>
	<path d="M476.62,28V12a4,4,0,0,0-8,0V28a4,4,0,1,0,8,0Z"/>
	<path d="M476.62,12a12,12,0,0,0-12-12,4,4,0,0,0,0,8,4,4,0,0,1,4,4,4,4,0,0,0,8,0Z"/>
	<path d="M468.62,20a4,4,0,0,0-4-4h-24a4,4,0,1,0,0,8h24a4,4,0,0,0,4-4Z"/>
	<path d="M444.63,28V20a4,4,0,1,0-8,0v8a4,4,0,1,0,8,0Z"/>
	<path d="M492.62,64V32a4,4,0,0,0-8,0V64a4,4,0,1,0,8,0Z"/>
	<path d="M516.55,36.64a4,4,0,0,0-3.29-4.6l-24-4a4,4,0,0,0-1.31,7.9l24,4A4,4,0,0,0,516.55,36.64Z"/>
	<path d="M516.55,59.32A4,4,0,0,0,512,56l-24,4a4,4,0,0,0,1.31,7.9l24-4A4,4,0,0,0,516.55,59.32Z"/>
	<path d="M596.59,20a4,4,0,0,0-4-4c-24.28,0-78.78,15.48-81.08,16.13a4,4,0,0,0-2.75,4.95,3.93,3.93,0,0,0,1,1.73,4,4,0,0,0,3.92,1c.56-.16,55.73-15.85,78.89-15.84A4,4,0,0,0,596.59,20Z"/>
	<path d="M692.28,49.43A4,4,0,0,0,690,44.25C687,43.1,617.05,16,592.59,16a4,4,0,0,0-2.83,6.82A4,4,0,0,0,592.59,24c23,0,93.8,27.44,94.51,27.72a4,4,0,0,0,5.18-2.28Z"/>
	<path d="M596.58,76a4,4,0,0,0-4-4c-23.15,0-78.32-15.69-78.88-15.86a4,4,0,0,0-2.19,7.7c2.3.65,56.8,16.16,81.07,16.16a4,4,0,0,0,4-4Z"/>
	<path d="M692.28,46.53a4,4,0,0,0-5.18-2.28c-.71.28-71.54,27.72-94.52,27.73a4,4,0,1,0,0,8C617.05,80,687,52.86,690,51.71a4,4,0,0,0,2.27-5.18Z"/>
	<path d="M596.58,68V28a4,4,0,0,0-8,0V68a4,4,0,1,0,8,0Z"/>
</svg>
